<?xml version="1.0" encoding="UTF-8"?>
<svg id="Layer_1" data-name="Layer 1" xmlns="http://www.w3.org/2000/svg" viewBox="738.5 110.74 135.41 166.8">
  <defs>
    <style>
      .cls-3 {
        fill: #71b552;
      }

      .cls-3, .cls-4 {
        stroke-width: 0px;
      }

      .cls-4 {
        fill: #d96e55;
      }
    </style>
  </defs>
  <g>
    <g>
      <rect class="cls-3" x="738.5" y="110.74" width="101.56" height="25.39"/>
      <rect class="cls-3" x="738.5" y="144.58" width="80.42" height="93.11"/>
      <rect class="cls-3" x="827.38" y="144.58" width="12.69" height="93.11"/>
      <g>
        <path class="cls-3" d="M873.91,136.12v-25.39h-25.39v25.39h25.39Z"/>
        <path class="cls-4" d="M848.51,144.58v93.11h25.4v-93.11h-25.4Z"/>
      </g>
    </g>
    <g>
      <path class="cls-3" d="M815.06,277.54v-26.4h2.84l9.79,24.19,9.75-24.19h2.84v26.4h-1.76v-24.63s-10.02,24.63-10.02,24.63h-1.67l-10.02-24.63v24.63h-1.76Z"/>
      <path class="cls-3" d="M747.75,277.54v-24.64s-9.25,0-9.25,0v-1.76h20.21v1.76h-9.2v24.64h-1.76Z"/>
      <path class="cls-3" d="M763.99,277.54v-26.4s17.46,0,17.46,0v1.76h-15.7v10.56s13.94,0,13.94,0v1.76h-13.94v10.57h15.7v1.76h-17.46Z"/>
      <path class="cls-4" d="M873.91,277.54h-5.28s-8.99-16.22-8.99-16.22v16.22h-5.28v-26.4h5.28s8.99,15.53,8.99,15.53v-15.53h5.28v26.4Z"/>
      <path class="cls-3" d="M799.31,251.14h-2.12l-10.46,26.4h1.89l4.88-12.33h9.49l4.88,12.33h1.89l-10.46-26.4ZM794.2,263.45l4.05-10.22,4.05,10.22h-8.1Z"/>
      <g>
        <path class="cls-3" d="M850.84,256.42v-5.28h-5.28v5.28h5.28Z"/>
        <path class="cls-4" d="M845.56,258.17v19.36h5.28v-19.36h-5.28Z"/>
      </g>
    </g>
  </g>
</svg>
